<?xml version="1.0" standalone="no"?>
<!DOCTYPE svg PUBLIC "-//W3C//DTD SVG 20010904//EN"
 "http://www.w3.org/TR/2001/REC-SVG-20010904/DTD/svg10.dtd">
<svg version="1.0" xmlns="http://www.w3.org/2000/svg"
 width="675.000000pt" height="151.000000pt" viewBox="0 0 675.000000 151.000000"
 preserveAspectRatio="xMidYMid meet">

<g transform="translate(0.000000,151.000000) scale(0.100000,-0.100000)"
fill="#000000" stroke="none">
<path d="M1111 1110 c-118 -25 -182 -125 -152 -238 17 -61 56 -100 166 -162
96 -54 155 -106 155 -136 0 -30 -30 -74 -53 -76 -70 -5 -97 17 -97 79 l0 43
-91 0 -91 0 4 -58 c9 -125 90 -186 248 -185 165 0 242 64 244 203 1 113 -33
154 -215 254 -82 45 -102 67 -101 108 1 38 24 58 67 58 40 0 65 -27 65 -68 l0
-32 86 0 87 0 -6 57 c-7 69 -29 101 -88 130 -51 26 -161 37 -228 23z"/>
<path d="M3323 1085 c-60 -27 -89 -67 -99 -133 -15 -98 38 -173 176 -247 98
-53 140 -93 140 -134 0 -60 -66 -92 -117 -56 -16 11 -23 28 -25 63 l-3 47 -87
3 -88 3 0 -52 c0 -79 29 -130 93 -165 48 -27 60 -29 152 -29 80 0 108 4 139
20 61 31 96 82 103 148 12 121 -17 167 -166 255 -145 84 -172 118 -135 170 15
22 66 30 90 14 16 -11 34 -48 34 -71 0 -19 6 -21 80 -21 l80 0 0 49 c0 62 -30
108 -90 139 -65 33 -204 32 -277 -3z"/>
<path d="M5430 1082 c-88 -45 -94 -67 -98 -312 -4 -215 2 -257 39 -304 74 -94
306 -101 395 -12 43 43 54 89 54 224 l0 112 -120 0 -120 0 0 -50 0 -50 35 0
35 0 0 -70 c0 -58 -3 -72 -22 -90 -28 -26 -82 -26 -108 0 -19 19 -20 33 -20
223 0 229 2 237 73 237 44 0 63 -18 72 -70 l7 -40 85 0 86 0 -7 52 c-11 78
-41 123 -100 153 -42 21 -64 25 -142 25 -81 0 -98 -3 -144 -28z"/>
<path d="M1823 1092 c-73 -1 -133 -6 -133 -10 0 -4 -12 -68 -26 -142 -37 -198
-94 -520 -94 -531 0 -5 40 -9 89 -9 l88 0 7 37 c3 21 24 159 47 308 38 255 44
284 52 274 2 -2 23 -139 46 -303 23 -165 44 -303 47 -308 3 -4 43 -8 90 -8 78
0 84 1 84 20 0 18 -81 466 -111 616 -12 62 -5 60 -186 56z"/>
<path d="M2753 1088 c-5 -7 -27 -116 -47 -243 -42 -265 -45 -279 -52 -272 -5
4 -84 486 -84 510 0 4 -63 7 -139 7 l-139 0 -6 -112 c-3 -62 -8 -218 -10 -346
l-5 -232 84 0 85 0 1 213 c0 116 2 226 3 242 1 17 3 61 4 99 1 38 4 67 6 65 2
-2 21 -96 41 -209 20 -113 45 -249 55 -304 11 -54 20 -100 20 -102 0 -3 39 -3
87 -2 l87 3 18 105 c30 171 98 513 103 519 3 2 5 -138 5 -312 l0 -317 86 0 86
0 -7 343 c-4 188 -9 345 -11 348 -2 4 -62 8 -132 8 -95 1 -131 -2 -139 -11z"/>
<path d="M3880 813 c0 -266 1 -290 20 -327 26 -53 78 -86 157 -99 120 -21 236
16 280 88 16 27 18 59 21 328 l3 297 -85 0 -86 0 0 -275 0 -276 -25 -24 c-30
-30 -54 -31 -89 -4 l-26 20 0 280 0 279 -85 0 -85 0 0 -287z"/>
<path d="M4979 1090 c-1 -3 -1 -124 0 -270 l1 -265 -19 50 c-10 28 -47 148
-81 268 l-63 217 -129 0 -128 0 0 -340 0 -340 83 0 82 0 -3 276 c-3 199 -1
274 7 270 6 -4 11 -13 11 -19 0 -7 35 -127 78 -267 l79 -255 121 -3 122 -3 -2
343 -3 342 -77 1 c-43 0 -79 -2 -79 -5z"/>
</g>
</svg>
